<svg xmlns="http://www.w3.org/2000/svg" x="0px" y="0px"
width="512" height="512"
viewBox="0 0 172 172"
style=" fill:#000000;"><g fill="none" fill-rule="nonzero" stroke="none" stroke-width="1" stroke-linecap="butt" stroke-linejoin="miter" stroke-miterlimit="10" stroke-dasharray="" stroke-dashoffset="0" font-family="none" font-weight="none" font-size="none" text-anchor="none" style="mix-blend-mode: normal"><path d="M0,172v-172h172v172z" fill="none"></path><g fill="#e67e22"><path d="M103.17313,20.57953c-14.24181,-0.09358 -31.11308,4.61871 -48.9461,20.46531l-5.57656,-5.46235c-1.34504,-1.31752 -3.50278,-1.30768 -4.8375,0.02015l-8.40515,8.35813c-1.3416,1.33472 -1.35816,3.50917 -0.02688,4.85765l5.75125,5.81844c-22.22214,26.40325 -23.32065,50.03459 -16.82375,66.99266c0.59458,1.54664 2.20718,2.44971 3.83657,2.14852c1.62939,-0.30119 2.81259,-1.72106 2.81499,-3.37805c0,-13.91651 8.12156,-28.89951 16.48781,-40.25203c3.02213,-4.10085 5.89542,-7.47592 8.51937,-10.42078l75.08875,78.11219c2.17408,2.24632 5.10647,3.49655 8.25063,3.52063h0.09406c3.17856,0 6.16819,-1.25022 8.44547,-3.52063c2.29448,-2.29448 3.54814,-5.32657 3.52062,-8.53953c-0.02408,-3.14416 -1.28414,-6.06967 -3.54078,-8.25063l-78.18609,-74.95437c3.20832,-2.78086 7.74889,-6.45118 13.26281,-10.16547c11.24511,-7.57493 26.23195,-14.96937 40.81641,-14.96937c1.69166,-0.00118 3.13144,-1.23202 3.3957,-2.9029c0.26426,-1.67089 -0.72541,-3.28596 -2.33414,-3.80913c-4.45493,-1.44696 -9.53297,-2.70161 -15.11719,-3.29891c-2.09408,-0.22399 -4.26094,-0.35488 -6.49031,-0.36953zM104.0264,27.74844c-9.29772,3.11885 -17.90979,7.71621 -24.96687,12.47c-7.4397,5.01153 -13.00621,9.80496 -16.34,12.85297c-0.20772,0.12903 -0.4292,0.22564 -0.6114,0.40313l-8.79485,8.55297c-0.35813,0.34813 -0.60615,0.75969 -0.77938,1.19594c-3.04601,3.30921 -6.76086,7.5906 -10.62906,12.83953c-5.25844,7.1354 -10.35934,15.77677 -13.80703,25.03406c0.25567,-14.08771 6.34286,-30.88077 25.86047,-50.35031c0.01815,-0.01994 0.03607,-0.0401 0.05375,-0.06047c19.1686,-19.18741 35.90441,-23.49455 50.01437,-22.93781z"></path></g></g></svg>